<?xml version="1.0" encoding="UTF-8" standalone="no"?>
<!-- Created with Inkscape (http://www.inkscape.org/) -->

<svg
   width="1600"
   height="400"
   viewBox="0 0 423.33333 105.83333"
   version="1.1"
   id="svg1"
   inkscape:version="1.4.2 (f4327f4, 2025-05-13)"
   sodipodi:docname="Marentis Labs Full Logo.svg"
   xmlns:inkscape="http://www.inkscape.org/namespaces/inkscape"
   xmlns:sodipodi="http://sodipodi.sourceforge.net/DTD/sodipodi-0.dtd"
   xmlns="http://www.w3.org/2000/svg"
   xmlns:svg="http://www.w3.org/2000/svg">
  <sodipodi:namedview
     id="namedview1"
     pagecolor="#ffffff"
     bordercolor="#000000"
     borderopacity="0.25"
     inkscape:showpageshadow="2"
     inkscape:pageopacity="0.0"
     inkscape:pagecheckerboard="true"
     inkscape:deskcolor="#d1d1d1"
     inkscape:document-units="mm"
     inkscape:zoom="1.6507506"
     inkscape:cx="829.01683"
     inkscape:cy="245.04005"
     inkscape:window-width="3840"
     inkscape:window-height="2071"
     inkscape:window-x="2391"
     inkscape:window-y="-9"
     inkscape:window-maximized="1"
     inkscape:current-layer="layer1" />
  <defs
     id="defs1">
    <clipPath
       clipPathUnits="userSpaceOnUse"
       id="clipPath3">
      <path
         d="M 1.4305e-5,0 H 960.00001 V 540 H 1.4305e-5 Z"
         transform="matrix(1,0,0,-1,-382.63001,267.67)"
         clip-rule="evenodd"
         id="path3" />
    </clipPath>
    <clipPath
       clipPathUnits="userSpaceOnUse"
       id="clipPath4">
      <path
         d="M 1.4305e-5,0 H 960.00001 V 540 H 1.4305e-5 Z"
         transform="matrix(1,0,0,-1,-382.63001,218.42001)"
         clip-rule="evenodd"
         id="path4" />
    </clipPath>
    <linearGradient
       x1="314.70001"
       y1="319.5"
       x2="314.70001"
       y2="253.5"
       gradientUnits="userSpaceOnUse"
       spreadMethod="pad"
       id="linearGradient7">
      <stop
         style="stop-opacity:1;stop-color:#c1943f"
         offset="0"
         id="stop6" />
      <stop
         style="stop-opacity:1;stop-color:#c1943f"
         offset="1"
         id="stop7" />
    </linearGradient>
    <linearGradient
       x1="273.03"
       y1="220.5"
       x2="273.03"
       y2="286.5"
       gradientUnits="userSpaceOnUse"
       spreadMethod="pad"
       id="linearGradient9">
      <stop
         style="stop-opacity:1;stop-color:#d5ac5a"
         offset="0"
         id="stop8" />
      <stop
         style="stop-opacity:1;stop-color:#d5ac5a"
         offset="1"
         id="stop9" />
    </linearGradient>
    <linearGradient
       x1="269.5"
       y1="306.89999"
       x2="269.5"
       y2="293.10001"
       gradientUnits="userSpaceOnUse"
       spreadMethod="pad"
       id="linearGradient11">
      <stop
         style="stop-opacity:1;stop-color:#d5ac5a"
         offset="0"
         id="stop10" />
      <stop
         style="stop-opacity:1;stop-color:#d5ac5a"
         offset="1"
         id="stop11" />
    </linearGradient>
    <linearGradient
       x1="269.5"
       y1="320.54999"
       x2="269.5"
       y2="306.75"
       gradientUnits="userSpaceOnUse"
       spreadMethod="pad"
       id="linearGradient13">
      <stop
         style="stop-opacity:1;stop-color:#d5ac5a"
         offset="0"
         id="stop12" />
      <stop
         style="stop-opacity:1;stop-color:#d5ac5a"
         offset="1"
         id="stop13" />
    </linearGradient>
    <linearGradient
       x1="269.5"
       y1="334.13"
       x2="269.5"
       y2="320.32001"
       gradientUnits="userSpaceOnUse"
       spreadMethod="pad"
       id="linearGradient15">
      <stop
         style="stop-opacity:1;stop-color:#d5ac5a"
         offset="0"
         id="stop14" />
      <stop
         style="stop-opacity:1;stop-color:#d5ac5a"
         offset="1"
         id="stop15" />
    </linearGradient>
    <linearGradient
       x1="269.5"
       y1="253.8"
       x2="269.5"
       y2="240"
       gradientUnits="userSpaceOnUse"
       spreadMethod="pad"
       id="linearGradient17">
      <stop
         style="stop-opacity:1;stop-color:#d5ac5a"
         offset="0"
         id="stop16" />
      <stop
         style="stop-opacity:1;stop-color:#d5ac5a"
         offset="1"
         id="stop17" />
    </linearGradient>
    <linearGradient
       x1="233.64"
       y1="319.95001"
       x2="233.64"
       y2="252.45"
       gradientUnits="userSpaceOnUse"
       spreadMethod="pad"
       id="linearGradient22">
      <stop
         style="stop-opacity:1;stop-color:#383c42"
         offset="0"
         id="stop18" />
      <stop
         style="stop-opacity:1;stop-color:#383c42"
         offset="0.26"
         id="stop19" />
      <stop
         style="stop-opacity:1;stop-color:#5a748d"
         offset="0.5"
         id="stop20" />
      <stop
         style="stop-opacity:1;stop-color:#383c42"
         offset="0.74"
         id="stop21" />
      <stop
         style="stop-opacity:1;stop-color:#383c42"
         offset="1"
         id="stop22" />
    </linearGradient>
    <clipPath
       clipPathUnits="userSpaceOnUse"
       id="clipPath22">
      <path
         d="M -4.5776e-5,540 H 960 V 6.1035e-5 H -3.0518e-5"
         clip-rule="evenodd"
         id="path22" />
    </clipPath>
    <linearGradient
       x1="175.11"
       y1="318.82001"
       x2="175.11"
       y2="252.83"
       gradientUnits="userSpaceOnUse"
       spreadMethod="pad"
       id="linearGradient31">
      <stop
         style="stop-opacity:1;stop-color:#383c42"
         offset="0"
         id="stop27" />
      <stop
         style="stop-opacity:1;stop-color:#383c42"
         offset="0.285"
         id="stop28" />
      <stop
         style="stop-opacity:1;stop-color:#425466"
         offset="0.5"
         id="stop29" />
      <stop
         style="stop-opacity:1;stop-color:#383c42"
         offset="0.715"
         id="stop30" />
      <stop
         style="stop-opacity:1;stop-color:#383c42"
         offset="1"
         id="stop31" />
    </linearGradient>
    <clipPath
       clipPathUnits="userSpaceOnUse"
       id="clipPath31">
      <path
         d="M 1.4305e-5,0 H 960.00001 V 540 H 1.4305e-5 Z"
         transform="matrix(1,0,0,-1,-726.86002,267.67)"
         clip-rule="evenodd"
         id="path31" />
    </clipPath>
  </defs>
  <g
     inkscape:label="Layer 1"
     inkscape:groupmode="layer"
     id="layer1">
    <g
       id="g1"
       transform="translate(-0.02996949,1.5714671)">
      <g
         id="g3"
         transform="matrix(0.43823275,0,0,0.43823275,-76.983265,-106.82469)">
        <text
           id="text3"
           xml:space="preserve"
           transform="matrix(1.3333333,0,0,1.3333333,510.17333,363.10667)"
           clip-path="url(#clipPath3)"><tspan
             id="tspan3"
             style="font-variant:normal;font-weight:900;font-size:60px;font-family:Inter;writing-mode:lr-tb;fill:#000000;fill-opacity:1;fill-rule:nonzero;stroke:none"
             x="0"
             y="0">MARENTIS</tspan></text>
      </g>
      <g
         id="g4"
         transform="matrix(0.43823275,0,0,0.43823275,-76.983265,-106.82469)">
        <text
           id="text4"
           xml:space="preserve"
           transform="matrix(1.3333333,0,0,1.3333333,510.17333,428.77333)"
           clip-path="url(#clipPath4)"><tspan
             id="tspan4"
             style="font-variant:normal;font-weight:200;font-size:27.984px;font-family:Inter;writing-mode:lr-tb;fill:#000000;fill-opacity:1;fill-rule:nonzero;stroke:none"
             x="0"
             dx="0 0.055968001 0.083952002 0 0 0 -0.13992 0.055968001 -0.083952002 0 -0.30782399 0.083952002 0 0 0 -0.251856 0.083952002 -0.22387201 0 0 0.503712 -0.55967999 0 0.111936 0 0 0 0 0 -0.33580801 0.13992 0 0 0 -0.111936 0 -0.22387201"
             y="0">Strategic Risk &amp; Performance Insights</tspan></text>
      </g>
      <g
         id="g5"
         transform="matrix(0.43823275,0,0,0.43823275,-76.983265,-106.82469)">
        <path
           id="path5"
           d="m 359.69,211.38 h 3.5999 V 327.23 H 359.69 Z"
           style="fill:#5a748d;fill-opacity:1;fill-rule:evenodd;stroke:none"
           transform="matrix(1.3333333,0,0,-1.3333333,0,720)" />
      </g>
      <g
         id="g6"
         transform="matrix(0.43823275,0,0,0.43823275,-76.983265,-106.82469)">
        <path
           id="path6"
           d="m 297.83,253.5 h 33.75 v 33 h -33.75 z"
           style="fill:url(#linearGradient7);fill-opacity:1;fill-rule:evenodd;stroke:none"
           transform="matrix(1.3333333,0,0,-1.3333333,0,720)" />
      </g>
      <g
         id="g7"
         transform="matrix(0.43823275,0,0,0.43823275,-76.983265,-106.82469)">
        <path
           id="path7"
           d="m 289.91,286.5 v -33 l -33.75,33 z"
           style="fill:url(#linearGradient9);fill-opacity:1;fill-rule:evenodd;stroke:none"
           transform="matrix(1.3333333,0,0,-1.3333333,0,720)" />
      </g>
      <g
         id="g9"
         transform="matrix(0.43823275,0,0,0.43823275,-76.983265,-106.82469)">
        <path
           id="path9"
           d="m 265.97,296.55 c 0,1.91 1.58,3.45 3.53,3.45 1.95,0 3.53,-1.54 3.53,-3.45 0,-1.91 -1.58,-3.45 -3.53,-3.45 -1.95,0 -3.53,1.54 -3.53,3.45 z"
           style="fill:url(#linearGradient11);fill-opacity:1;fill-rule:evenodd;stroke:none"
           transform="matrix(1.3333333,0,0,-1.3333333,0,720)" />
      </g>
      <g
         id="g11"
         transform="matrix(0.43823275,0,0,0.43823275,-76.983265,-106.82469)">
        <path
           id="path11"
           d="m 265.97,310.2 c 0,1.91 1.58,3.45 3.53,3.45 1.95,0 3.53,-1.54 3.53,-3.45 0,-1.91 -1.58,-3.45 -3.53,-3.45 -1.95,0 -3.53,1.54 -3.53,3.45 z"
           style="fill:url(#linearGradient13);fill-opacity:1;fill-rule:evenodd;stroke:none"
           transform="matrix(1.3333333,0,0,-1.3333333,0,720)" />
      </g>
      <g
         id="g13"
         transform="matrix(0.43823275,0,0,0.43823275,-76.983265,-106.82469)">
        <path
           id="path13"
           d="m 265.97,323.77 c 0,1.91 1.58,3.45 3.53,3.45 1.95,0 3.53,-1.54 3.53,-3.45 0,-1.9 -1.58,-3.45 -3.53,-3.45 -1.95,0 -3.53,1.55 -3.53,3.45 z"
           style="fill:url(#linearGradient15);fill-opacity:1;fill-rule:evenodd;stroke:none"
           transform="matrix(1.3333333,0,0,-1.3333333,0,720)" />
      </g>
      <g
         id="g15"
         transform="matrix(0.43823275,0,0,0.43823275,-76.983265,-106.82469)">
        <path
           id="path15"
           d="m 265.97,243.45 c 0,1.91 1.58,3.45 3.53,3.45 1.95,0 3.53,-1.54 3.53,-3.45 0,-1.91 -1.58,-3.45 -3.53,-3.45 -1.95,0 -3.53,1.54 -3.53,3.45 z"
           style="fill:url(#linearGradient17);fill-opacity:1;fill-rule:evenodd;stroke:none"
           transform="matrix(1.3333333,0,0,-1.3333333,0,720)" />
      </g>
      <g
         id="g17"
         transform="matrix(0.43823275,0,0,0.43823275,-76.983265,-106.82469)">
        <path
           id="path17"
           d="m 217.14,252.45 h 33 l -33,33.75 z"
           style="fill:url(#linearGradient22);fill-opacity:1;fill-rule:evenodd;stroke:none"
           transform="matrix(1.3333333,0,0,-1.3333333,0,720)"
           clip-path="url(#clipPath22)" />
      </g>
      <g
         id="g22"
         transform="matrix(0.43823275,0,0,0.43823275,-76.983265,-106.82469)">
        <path
           id="path23"
           d="m 233.64,296.55 c 0,1.91 1.58,3.45 3.52,3.45 1.95,0 3.53,-1.54 3.53,-3.45 0,-1.91 -1.58,-3.45 -3.53,-3.45 -1.94,0 -3.52,1.54 -3.52,3.45 z"
           style="fill:#383c42;fill-opacity:1;fill-rule:evenodd;stroke:none"
           transform="matrix(1.3333333,0,0,-1.3333333,0,720)" />
      </g>
      <g
         id="g23"
         transform="matrix(0.43823275,0,0,0.43823275,-76.983265,-106.82469)">
        <path
           id="path24"
           d="m 233.64,243.45 c 0,1.91 1.58,3.45 3.52,3.45 1.95,0 3.53,-1.54 3.53,-3.45 0,-1.91 -1.58,-3.45 -3.53,-3.45 -1.94,0 -3.52,1.54 -3.52,3.45 z"
           style="fill:#383c42;fill-opacity:1;fill-rule:evenodd;stroke:none"
           transform="matrix(1.3333333,0,0,-1.3333333,0,720)" />
      </g>
      <g
         id="g24"
         transform="matrix(0.43823275,0,0,0.43823275,-76.983265,-106.82469)">
        <path
           id="path25"
           d="m 233.64,229.14 c 0,1.9 1.58,3.45 3.52,3.45 1.95,0 3.53,-1.55 3.53,-3.45 0,-1.91 -1.58,-3.45 -3.53,-3.45 -1.94,0 -3.52,1.54 -3.52,3.45 z"
           style="fill:#383c42;fill-opacity:1;fill-rule:evenodd;stroke:none"
           transform="matrix(1.3333333,0,0,-1.3333333,0,720)" />
      </g>
      <g
         id="g25"
         transform="matrix(0.43823275,0,0,0.43823275,-76.983265,-106.82469)">
        <path
           id="path26"
           d="m 233.64,214.83 c 0,1.9 1.58,3.45 3.52,3.45 1.95,0 3.53,-1.55 3.53,-3.45 0,-1.91 -1.58,-3.45 -3.53,-3.45 -1.94,0 -3.52,1.54 -3.52,3.45 z"
           style="fill:#383c42;fill-opacity:1;fill-rule:evenodd;stroke:none"
           transform="matrix(1.3333333,0,0,-1.3333333,0,720)" />
      </g>
      <g
         id="g26"
         transform="matrix(0.43823275,0,0,0.43823275,-76.983265,-106.82469)">
        <path
           id="path27"
           d="m 141,252.82 h 68.217 v 33 H 141 Z"
           style="fill:url(#linearGradient31);fill-opacity:1;fill-rule:evenodd;stroke:none"
           transform="matrix(1.3333333,0,0,-1.3333333,0,720)" />
      </g>
      <g
         id="g31"
         transform="matrix(0.43823275,0,0,0.43823275,-76.983265,-106.82469)">
        <text
           id="text31"
           xml:space="preserve"
           transform="matrix(1.3333333,0,0,1.3333333,969.14667,363.10667)"
           clip-path="url(#clipPath31)"><tspan
             id="tspan31"
             style="font-variant:normal;font-weight:200;font-size:60px;font-family:Inter;writing-mode:lr-tb;fill:#caa048;fill-opacity:1;fill-rule:nonzero;stroke:#caa048;stroke-width:1.7143;stroke-linecap:butt;stroke-linejoin:miter;stroke-miterlimit:10;stroke-dasharray:none;stroke-opacity:1"
             x="0"
             dx="0 0 0.12"
             y="0">Labs</tspan></text>
      </g>
    </g>
  </g>
</svg>
