<svg xmlns="http://www.w3.org/2000/svg" width="240.621" height="89.614" viewBox="0 0 240.621 89.614"><g transform="translate(-67.689 -43.25)"><path d="M331.737,323.7h5.51a4.427,4.427,0,0,0,3.2-.958,3.8,3.8,0,0,0,1.038-3.036,3.417,3.417,0,0,0-3.916-3.914h-5.832Zm0,4.954v9.827H326.06V313.878A2.871,2.871,0,0,1,328.938,311h9.347q4.392,0,6.551,2.238,2.234,2.238,2.238,6.631a9.421,9.421,0,0,1-2.16,6.551,8.251,8.251,0,0,1-6.23,2.236Z" transform="translate(-201.505 -213.449)"/><path d="M459.33,367.312V357a13.168,13.168,0,0,1,.917-5.231,8.678,8.678,0,0,1,2.519-3.4,9.857,9.857,0,0,1,3.555-1.756,15.757,15.757,0,0,1,4.195-.56h.8v5.677h-1.838a4.694,4.694,0,0,0-3.436,1.118,4.762,4.762,0,0,0-1.118,3.516v10.945Z" transform="translate(-311.088 -242.277)"/><path d="M548,348.994q-1.676,1.84-1.518,5.473t1.36,5.074a3.587,3.587,0,0,0,1.676,1.077,3.8,3.8,0,0,0,2.437.08,4.031,4.031,0,0,0,2.2-1.8,9.112,9.112,0,0,0,1.04-4.632,8.115,8.115,0,0,0-.921-4.315,4.148,4.148,0,0,0-2.115-1.836,3.88,3.88,0,0,0-2.4-.041,4.1,4.1,0,0,0-1.758.919m-3.836,14.061a7.9,7.9,0,0,1-2.4-3.875,17.808,17.808,0,0,1-.711-5.073,16.024,16.024,0,0,1,.6-4.314,8.9,8.9,0,0,1,1.866-3.6,8.331,8.331,0,0,1,5.355-2.844,12.089,12.089,0,0,1,5.912.533,8.14,8.14,0,0,1,4.474,4.154,13.291,13.291,0,0,1,1.358,6.151,15.19,15.19,0,0,1-.56,4.4,11.233,11.233,0,0,1-1.438,3.114,8.018,8.018,0,0,1-4.874,3.27,10.86,10.86,0,0,1-5.313.119,9.294,9.294,0,0,1-4.275-2.037" transform="translate(-378.291 -239.938)"/><path d="M669.51,358.069h5.432a2.934,2.934,0,0,0,1.2,2.4,5.678,5.678,0,0,0,3.2.8,5.155,5.155,0,0,0,2.476-.558,1.7,1.7,0,0,0,.958-1.518q0-1.436-3.354-2.156a15.4,15.4,0,0,1-2.158-.482q-4.236-1.036-5.673-2.476a4.908,4.908,0,0,1-1.6-3.836,6.363,6.363,0,0,1,2.311-5.032,9.984,9.984,0,0,1,6.233-1.838,10.878,10.878,0,0,1,6.63,1.838,7.054,7.054,0,0,1,2.476,5.192h-3.429a2.525,2.525,0,0,1-2.311-1.356q-.322-.32-.64-.642a4.341,4.341,0,0,0-2.638-.711,4.737,4.737,0,0,0-2.4.48,1.612,1.612,0,0,0-.711,1.438q0,1.28,4.154,2.158a8.646,8.646,0,0,0,.841.24,3.1,3.1,0,0,0,.677.08,14.752,14.752,0,0,1,5.673,2.4,5.048,5.048,0,0,1,1.518,3.836,6.389,6.389,0,0,1-2.558,5.432q-2.4,1.756-7.191,1.756-4.552,0-6.79-1.836a6.431,6.431,0,0,1-2.311-5.352Z" transform="translate(-483.912 -240.065)"/><path d="M811.191,354.554a8.184,8.184,0,0,0-1.2-4.8,3.953,3.953,0,0,0-3.436-1.676,3.884,3.884,0,0,0-3.354,1.676,8.163,8.163,0,0,0-1.12,4.8,7.256,7.256,0,0,0,1.2,4.554,3.969,3.969,0,0,0,3.434,1.678,3.811,3.811,0,0,0,3.276-1.678,7.691,7.691,0,0,0,1.2-4.554m-9.109,15.66a2.73,2.73,0,0,1-2.714,2.714H796.65V353.037q0-5.59,3.276-7.63a13.231,13.231,0,0,1,7.109-2.037,11.527,11.527,0,0,1,4.035.759,7.566,7.566,0,0,1,3.238,2.2,12.726,12.726,0,0,1,2.4,7.989,12.989,12.989,0,0,1-2.4,8.147,7.479,7.479,0,0,1-6.148,3.038,8.14,8.14,0,0,1-3.517-.72,6,6,0,0,1-2.558-2.476Z" transform="translate(-588.454 -240.065)"/><path d="M933.953,352.358H942.1a5.214,5.214,0,0,0-1.12-3.2,3.831,3.831,0,0,0-2.956-1.12,3.884,3.884,0,0,0-2.876,1.12,4.6,4.6,0,0,0-1.2,3.2m9.587,6.231h3.994a8.772,8.772,0,0,1-3.356,5.113,10.155,10.155,0,0,1-6.232,1.838,8.9,8.9,0,0,1-7.109-2.958q-2.556-2.878-2.558-8.219,0-5.112,2.478-7.987a8.9,8.9,0,0,1,7.109-2.958A9.561,9.561,0,0,1,945.3,346.3q2.559,2.954,2.558,8.229v.878a1.454,1.454,0,0,1-.073.562H933.953a5.508,5.508,0,0,0,1.2,3.674,3.777,3.777,0,0,0,3.116,1.278,4.543,4.543,0,0,0,2.311-.558,1.141,1.141,0,0,0,.441-.281c.13-.133.277-.281.437-.439a1.71,1.71,0,0,1,.6-.64,2.381,2.381,0,0,1,1.479-.4" transform="translate(-696.688 -240.106)"/><path d="M1074.341,358.549h3.994a8.71,8.71,0,0,1-3.354,5.113,10.168,10.168,0,0,1-6.233,1.838,8.9,8.9,0,0,1-7.109-2.958q-2.56-2.874-2.558-8.227,0-5.112,2.478-7.989a8.9,8.9,0,0,1,7.109-2.956,9.561,9.561,0,0,1,7.43,2.876,10.964,10.964,0,0,1,2.079,4.074h-5.6a4.686,4.686,0,0,0-.8-1.2,3.832,3.832,0,0,0-2.954-1.12,3.9,3.9,0,0,0-2.877,1.12q-1.438,1.6-1.438,5.272t1.438,5.193a3.78,3.78,0,0,0,3.116,1.278,4.522,4.522,0,0,0,2.311-.558,1.122,1.122,0,0,0,.439-.281l.439-.439a3.4,3.4,0,0,1,.64-.64,2.2,2.2,0,0,1,1.438-.4" transform="translate(-804.241 -240.065)"/><path d="M1197.007,338.483a41.421,41.421,0,0,1-5.711-.08q-3.077-.24-3.077-3.91V311h2.876a2.531,2.531,0,0,1,1.838.8,2.614,2.614,0,0,1,.8,1.918v3.594h3.274v1.12a2.583,2.583,0,0,1-.8,1.955,2.693,2.693,0,0,1-1.918.757h-.558v11.825c0,.906.533,1.356,1.6,1.356h1.676Z" transform="translate(-910.428 -213.449)"/><path d="M1253.78,358.069h5.433a2.935,2.935,0,0,0,1.2,2.4,5.656,5.656,0,0,0,3.2.8,5.155,5.155,0,0,0,2.476-.558,1.7,1.7,0,0,0,.96-1.518q0-1.436-3.358-2.156a15.585,15.585,0,0,1-2.158-.482q-4.234-1.036-5.67-2.476a4.908,4.908,0,0,1-1.6-3.836,6.356,6.356,0,0,1,2.31-5.032,9.976,9.976,0,0,1,6.231-1.838,10.886,10.886,0,0,1,6.631,1.838,7.053,7.053,0,0,1,2.476,5.192h-3.436a2.528,2.528,0,0,1-2.311-1.356q-.32-.32-.636-.642a4.351,4.351,0,0,0-2.638-.711,4.737,4.737,0,0,0-2.4.48,1.6,1.6,0,0,0-.711,1.438q0,1.28,4.156,2.158a8.338,8.338,0,0,0,.839.24,3.1,3.1,0,0,0,.677.08,14.731,14.731,0,0,1,5.672,2.4,5.031,5.031,0,0,1,1.518,3.836,6.391,6.391,0,0,1-2.556,5.432q-2.4,1.756-7.189,1.756-4.554,0-6.791-1.836a6.432,6.432,0,0,1-2.311-5.352Z" transform="translate(-964.335 -240.065)"/><path d="M280.685,139.427a1.213,1.213,0,0,0,.084.128,1.278,1.278,0,0,0,1.349.355l3.983-1.539,26.545-9.937a5.317,5.317,0,0,0,.581-.267h0a5.426,5.426,0,0,0,2.2-7.344l-.14-.251a5.417,5.417,0,0,0-7.369-2.254,5.5,5.5,0,0,0-.544.339l-.075.052-11.455,8.38v-.012l-9.6,7-5.275,3.786a1.251,1.251,0,0,0-.416,1.294c.018.05.039.1.06.142l.064.128Z" transform="translate(-164.045 -54.48)" fill="#94c23d"/><path d="M191.761,320.166l.148.034a5.425,5.425,0,0,0,6.331-4.372,5.6,5.6,0,0,0,.071-.636V315.1l.567-14.178h.016l.48-11.864.322-6.48a1.252,1.252,0,0,0-.755-1.132,1.387,1.387,0,0,0-.148-.041l-.2-.037a.334.334,0,0,1-.094,0,1.263,1.263,0,0,0-1.111.837l-1.273,4.074-8.738,26.956a5.385,5.385,0,0,0,4.228,6.912Z" transform="translate(-87.271 -189.083)" fill="#f7b508"/><path d="M263.587,5.587A5.432,5.432,0,0,0,257.213,9.9h0a5.541,5.541,0,0,0-.076.635v.121l-1.385,28.187-.252,4.3a1.121,1.121,0,0,0,.889,1.178l.188.037h.1a1.263,1.263,0,0,0,1.122-.826l1.984-6.134,8.265-24.807a5.134,5.134,0,0,0,.156-.615,5.428,5.428,0,0,0-4.324-6.327l-.153-.02Z" transform="translate(-143.487 37.764)" fill="#94c23d"/><path d="M88.347,57.562a5.349,5.349,0,0,0,.435.469l.085.082,20.692,19.2,3.137,2.956a1.248,1.248,0,0,0,1.349.162,1.051,1.051,0,0,0,.126-.085l.155-.124a.546.546,0,0,1,.064-.073,1.261,1.261,0,0,0,.089-1.39l-3.427-5.469L97.376,51A5.269,5.269,0,0,0,97,50.473a5.425,5.425,0,0,0-7.627-.759c-.059.053-.087.082-.121.108l-.116.089a5.428,5.428,0,0,0-.793,7.652" transform="translate(-5.038 2.404)" fill="#e94e0f"/><path d="M12.585,192.177c-.108-.021-.212-.039-.311-.052a5.426,5.426,0,0,0-6.068,4.685l-.036.3a5.426,5.426,0,0,0,4.674,6.112,4.918,4.918,0,0,0,.638.041h.126l28.221-.245h4.307a1.247,1.247,0,0,0,1.093-.807,1.011,1.011,0,0,0,.032-.149l.025-.178v-.108a1.234,1.234,0,0,0-.889-1.066l-6.237-1.626L12.9,192.245c-.11-.027-.217-.052-.318-.071" transform="translate(61.568 -115.667)" fill="#e94e0f"/><path d="M61.219,276.643l-.355.2-12.3,6.413a5.557,5.557,0,0,0-.546.336,5.428,5.428,0,0,0-1.285,7.557l.178.245a5.423,5.423,0,0,0,7.582,1.326,5.866,5.866,0,0,0,.5-.4l.087-.078,20.582-19.313,3.167-2.917a1.25,1.25,0,0,0,.258-1.335,1.172,1.172,0,0,0-.071-.119l-.114-.165s-.039-.044-.075-.08a1.25,1.25,0,0,0-1.381-.178l-5.688,3.032Z" transform="translate(28.998 -178.098)" fill="#f7b508"/><path d="M889.446,109.68a3.686,3.686,0,1,0,0,.009" transform="translate(-658.733 -44.884)" fill="#e94e0f"/><path d="M884.156,157.334h0a6.026,6.026,0,0,0-.494-.574,5.951,5.951,0,0,0-.484-.4,5.563,5.563,0,0,0-3.492-1.244h-.3a5.608,5.608,0,0,0-3.469,1.182,5.458,5.458,0,0,0-.567.467,5.543,5.543,0,0,0-.492.572h0a4.13,4.13,0,0,0-.371,1.777l.316,5.5c.187,1.466.519,1.777,1.132,2.083l.611,5.019c.3,2.382.631,2.311,2.289,2.321h1.137c1.657.014,1.985.091,2.311-2.287l.684-5.01c.617-.3.954-.6,1.161-2.069l.4-5.489a4.063,4.063,0,0,0-.375-1.856" transform="translate(-652.457 -85.274)" fill="#e94e0f"/><path d="M525.193,113.623l-3.834,11.663h7.669Zm-1.278-5.51h4.474l9.991,27.48h-6l-1.836-5.673H519.839l-1.756,5.673H512.09l9.109-25.646a2.683,2.683,0,0,1,2.716-1.838" transform="translate(-354.471 -46.62)"/><path d="M682.879,155.667h3.994a8.778,8.778,0,0,1-3.356,5.112,10.152,10.152,0,0,1-6.231,1.841,8.9,8.9,0,0,1-7.109-2.956q-2.556-2.876-2.556-8.229,0-5.112,2.476-7.988a8.9,8.9,0,0,1,7.109-2.958,9.566,9.566,0,0,1,7.431,2.876,11.008,11.008,0,0,1,2.078,4.076h-5.593a4.671,4.671,0,0,0-.8-1.2,3.819,3.819,0,0,0-2.956-1.118,3.9,3.9,0,0,0-2.876,1.118q-1.438,1.6-1.438,5.272t1.438,5.193a3.784,3.784,0,0,0,3.116,1.278,4.516,4.516,0,0,0,2.311-.558,1.122,1.122,0,0,0,.439-.281l.439-.439a3.452,3.452,0,0,1,.64-.64,2.213,2.213,0,0,1,1.438-.4" transform="translate(-482.357 -73.245)"/><path d="M807.087,135.593a41.967,41.967,0,0,1-5.711-.08q-3.08-.243-3.077-3.91V108.11h2.876a2.529,2.529,0,0,1,1.838.8,2.631,2.631,0,0,1,.8,1.918v3.6h3.274v1.118a2.58,2.58,0,0,1-.8,1.955,2.686,2.686,0,0,1-1.918.759h-.558v11.825q0,1.358,1.6,1.358h1.676Z" transform="translate(-589.811 -46.62)"/><path d="M959.443,164.422h-5.672L946.34,143.17h5.913l4.234,14.941,3.756-13.016a2.506,2.506,0,0,1,2.554-1.918h4.156Z" transform="translate(-711.539 -75.448)"/><path d="M1069.392,149.436h8.147a5.161,5.161,0,0,0-1.118-3.2,3.826,3.826,0,0,0-2.956-1.118,3.9,3.9,0,0,0-2.876,1.118,4.582,4.582,0,0,0-1.2,3.2m9.587,6.231h3.987a8.726,8.726,0,0,1-3.354,5.112,10.128,10.128,0,0,1-6.226,1.841,8.9,8.9,0,0,1-7.109-2.956q-2.554-2.876-2.556-8.229,0-5.112,2.478-7.988a8.911,8.911,0,0,1,7.109-2.958,9.561,9.561,0,0,1,7.429,2.876q2.556,2.958,2.558,8.231v.878a1.387,1.387,0,0,1-.08.558h-13.821a5.455,5.455,0,0,0,1.2,3.676,3.776,3.776,0,0,0,3.116,1.278,4.511,4.511,0,0,0,2.311-.558,1.1,1.1,0,0,0,.439-.281c.133-.132.281-.279.439-.439a1.781,1.781,0,0,1,.6-.64,2.373,2.373,0,0,1,1.479-.4" transform="translate(-808.056 -73.245)"/></g></svg>